<svg xmlns="http://www.w3.org/2000/svg" viewBox="0 0 800 500">
  <rect width="800" height="500" fill="#0f0f1a"/>
  <!-- filter pills -->
  <rect x="196" y="68" width="64" height="24" rx="12" fill="#c9b99a" opacity=".9"/>
  <rect x="270" y="68" width="64" height="24" rx="12" fill="#16162a" stroke="#3a3a5c" stroke-width="1"/>
  <rect x="344" y="68" width="64" height="24" rx="12" fill="#16162a" stroke="#3a3a5c" stroke-width="1"/>
  <rect x="418" y="68" width="64" height="24" rx="12" fill="#16162a" stroke="#3a3a5c" stroke-width="1"/>
  <rect x="492" y="68" width="64" height="24" rx="12" fill="#16162a" stroke="#3a3a5c" stroke-width="1"/>
  <!-- row 1 -->
  <rect x="32" y="110" width="228" height="158" rx="12" fill="#16162a" stroke="#2a2a3e" stroke-width="1"/>
  <text x="50" y="165" font-family="Georgia,serif" font-size="54" fill="#2e2e4a">"</text>
  <rect x="50" y="178" width="178" height="8" rx="4" fill="#d8d0c5" opacity=".5"/>
  <rect x="50" y="194" width="148" height="8" rx="4" fill="#d8d0c5" opacity=".4"/>
  <rect x="50" y="218" width="90"  height="8" rx="4" fill="#c9b99a" opacity=".75"/>

  <rect x="286" y="110" width="228" height="158" rx="12" fill="#16162a" stroke="#2a2a3e" stroke-width="1"/>
  <text x="304" y="165" font-family="Georgia,serif" font-size="54" fill="#2e2e4a">"</text>
  <rect x="304" y="178" width="178" height="8" rx="4" fill="#d8d0c5" opacity=".5"/>
  <rect x="304" y="194" width="155" height="8" rx="4" fill="#d8d0c5" opacity=".4"/>
  <rect x="304" y="210" width="130" height="8" rx="4" fill="#d8d0c5" opacity=".3"/>
  <rect x="304" y="232" width="80"  height="8" rx="4" fill="#c9b99a" opacity=".75"/>

  <rect x="540" y="110" width="228" height="158" rx="12" fill="#16162a" stroke="#2a2a3e" stroke-width="1"/>
  <text x="558" y="165" font-family="Georgia,serif" font-size="54" fill="#2e2e4a">"</text>
  <rect x="558" y="178" width="178" height="8" rx="4" fill="#d8d0c5" opacity=".5"/>
  <rect x="558" y="194" width="120" height="8" rx="4" fill="#d8d0c5" opacity=".4"/>
  <rect x="558" y="218" width="70"  height="8" rx="4" fill="#c9b99a" opacity=".75"/>
  <!-- row 2 -->
  <rect x="32"  y="286" width="228" height="158" rx="12" fill="#16162a" stroke="#2a2a3e" stroke-width="1"/>
  <text x="50"  y="341" font-family="Georgia,serif" font-size="54" fill="#2e2e4a">"</text>
  <rect x="50"  y="354" width="178" height="8" rx="4" fill="#d8d0c5" opacity=".5"/>
  <rect x="50"  y="378" width="95"  height="8" rx="4" fill="#c9b99a" opacity=".75"/>

  <rect x="286" y="286" width="228" height="158" rx="12" fill="#16162a" stroke="#2a2a3e" stroke-width="1"/>
  <text x="304" y="341" font-family="Georgia,serif" font-size="54" fill="#2e2e4a">"</text>
  <rect x="304" y="354" width="178" height="8" rx="4" fill="#d8d0c5" opacity=".5"/>
  <rect x="304" y="370" width="148" height="8" rx="4" fill="#d8d0c5" opacity=".4"/>
  <rect x="304" y="394" width="100" height="8" rx="4" fill="#c9b99a" opacity=".75"/>

  <rect x="540" y="286" width="228" height="158" rx="12" fill="#16162a" stroke="#2a2a3e" stroke-width="1"/>
  <text x="558" y="341" font-family="Georgia,serif" font-size="54" fill="#2e2e4a">"</text>
  <rect x="558" y="354" width="165" height="8" rx="4" fill="#d8d0c5" opacity=".5"/>
  <rect x="558" y="378" width="112" height="8" rx="4" fill="#c9b99a" opacity=".75"/>
  <!-- random btn -->
  <rect x="614" y="458" width="150" height="36" rx="18" fill="#c9b99a"/>
  <rect x="634" y="467" width="110" height="12" rx="4" fill="#0f0f1a" opacity=".55"/>
</svg>
